<mxfile host="app.diagrams.net" agent="Mozilla/5.0 (Windows NT 10.0; Win64; x64) AppleWebKit/537.36 (KHTML, like Gecko) Chrome/129.0.0.0 Safari/537.36" version="24.7.17">
  <diagram name="Produce Invoice and Delivery Note BPMN" id="BZNICkMQoJocDhWyYyHb">
    <mxGraphModel dx="1221" dy="725" grid="1" gridSize="10" guides="1" tooltips="1" connect="1" arrows="1" fold="1" page="1" pageScale="1" pageWidth="827" pageHeight="1169" math="0" shadow="0">
      <root>
        <mxCell id="0" />
        <mxCell id="1" parent="0" />
        <mxCell id="3HK6NQ19mwrpIGu4Z_Xl-1" value="" style="ellipse;whiteSpace=wrap;html=1;aspect=fixed;" vertex="1" parent="1">
          <mxGeometry x="60" y="40" width="40" height="40" as="geometry" />
        </mxCell>
        <mxCell id="3HK6NQ19mwrpIGu4Z_Xl-2" value="Compare work order with original order" style="rounded=1;whiteSpace=wrap;html=1;fontSize=12;" vertex="1" parent="1">
          <mxGeometry x="150" y="30" width="200" height="60" as="geometry" />
        </mxCell>
        <mxCell id="3HK6NQ19mwrpIGu4Z_Xl-3" style="edgeStyle=orthogonalEdgeStyle;html=1;" edge="1" parent="1" source="3HK6NQ19mwrpIGu4Z_Xl-1" target="3HK6NQ19mwrpIGu4Z_Xl-2">
          <mxGeometry relative="1" as="geometry" />
        </mxCell>
        <mxCell id="3HK6NQ19mwrpIGu4Z_Xl-4" value="Produce invoice for customer" style="rounded=1;whiteSpace=wrap;html=1;fontSize=12;" vertex="1" parent="1">
          <mxGeometry x="400" y="30" width="160" height="60" as="geometry" />
        </mxCell>
        <mxCell id="3HK6NQ19mwrpIGu4Z_Xl-5" style="edgeStyle=orthogonalEdgeStyle;html=1;" edge="1" parent="1" source="3HK6NQ19mwrpIGu4Z_Xl-2" target="3HK6NQ19mwrpIGu4Z_Xl-4">
          <mxGeometry relative="1" as="geometry" />
        </mxCell>
        <mxCell id="3HK6NQ19mwrpIGu4Z_Xl-6" value="Produce delivery note" style="rounded=1;whiteSpace=wrap;html=1;fontSize=12;" vertex="1" parent="1">
          <mxGeometry x="170" y="190" width="160" height="60" as="geometry" />
        </mxCell>
        <mxCell id="3HK6NQ19mwrpIGu4Z_Xl-7" style="edgeStyle=orthogonalEdgeStyle;html=1;" edge="1" parent="1" source="3HK6NQ19mwrpIGu4Z_Xl-2" target="3HK6NQ19mwrpIGu4Z_Xl-6">
          <mxGeometry relative="1" as="geometry" />
        </mxCell>
        <mxCell id="3HK6NQ19mwrpIGu4Z_Xl-8" value="" style="rhombus;whiteSpace=wrap;html=1;" vertex="1" parent="1">
          <mxGeometry x="770" y="20" width="80" height="80" as="geometry" />
        </mxCell>
        <mxCell id="3HK6NQ19mwrpIGu4Z_Xl-26" style="edgeStyle=orthogonalEdgeStyle;rounded=0;orthogonalLoop=1;jettySize=auto;html=1;entryX=0;entryY=0.5;entryDx=0;entryDy=0;" edge="1" parent="1" source="3HK6NQ19mwrpIGu4Z_Xl-10" target="3HK6NQ19mwrpIGu4Z_Xl-14">
          <mxGeometry relative="1" as="geometry" />
        </mxCell>
        <mxCell id="3HK6NQ19mwrpIGu4Z_Xl-10" value="Send invoice to customer" style="rounded=1;whiteSpace=wrap;html=1;fontSize=12;" vertex="1" parent="1">
          <mxGeometry x="920" width="160" height="60" as="geometry" />
        </mxCell>
        <mxCell id="3HK6NQ19mwrpIGu4Z_Xl-11" value="Good Credit" style="edgeStyle=orthogonalEdgeStyle;html=1;" edge="1" parent="1" source="3HK6NQ19mwrpIGu4Z_Xl-8">
          <mxGeometry relative="1" as="geometry">
            <mxPoint x="920" y="30" as="targetPoint" />
          </mxGeometry>
        </mxCell>
        <mxCell id="3HK6NQ19mwrpIGu4Z_Xl-27" style="edgeStyle=orthogonalEdgeStyle;rounded=0;orthogonalLoop=1;jettySize=auto;html=1;entryX=0;entryY=0.75;entryDx=0;entryDy=0;" edge="1" parent="1" source="3HK6NQ19mwrpIGu4Z_Xl-12" target="3HK6NQ19mwrpIGu4Z_Xl-14">
          <mxGeometry relative="1" as="geometry" />
        </mxCell>
        <mxCell id="3HK6NQ19mwrpIGu4Z_Xl-12" value="Forward invoice to warehouse for COD" style="rounded=1;whiteSpace=wrap;html=1;fontSize=12;" vertex="1" parent="1">
          <mxGeometry x="920" y="70" width="180" height="60" as="geometry" />
        </mxCell>
        <mxCell id="3HK6NQ19mwrpIGu4Z_Xl-13" value="COD" style="edgeStyle=orthogonalEdgeStyle;html=1;" edge="1" parent="1" source="3HK6NQ19mwrpIGu4Z_Xl-8" target="3HK6NQ19mwrpIGu4Z_Xl-12">
          <mxGeometry relative="1" as="geometry" />
        </mxCell>
        <mxCell id="3HK6NQ19mwrpIGu4Z_Xl-29" style="edgeStyle=orthogonalEdgeStyle;rounded=0;orthogonalLoop=1;jettySize=auto;html=1;" edge="1" parent="1" source="3HK6NQ19mwrpIGu4Z_Xl-14">
          <mxGeometry relative="1" as="geometry">
            <mxPoint x="1420" y="60" as="targetPoint" />
          </mxGeometry>
        </mxCell>
        <mxCell id="3HK6NQ19mwrpIGu4Z_Xl-14" value="Send delivery note to warehouse" style="rounded=1;whiteSpace=wrap;html=1;fontSize=12;" vertex="1" parent="1">
          <mxGeometry x="1160" y="30" width="200" height="60" as="geometry" />
        </mxCell>
        <mxCell id="3HK6NQ19mwrpIGu4Z_Xl-15" style="edgeStyle=orthogonalEdgeStyle;html=1;" edge="1" parent="1" source="3HK6NQ19mwrpIGu4Z_Xl-6" target="3HK6NQ19mwrpIGu4Z_Xl-14">
          <mxGeometry relative="1" as="geometry" />
        </mxCell>
        <mxCell id="3HK6NQ19mwrpIGu4Z_Xl-19" value="" style="points=[[0.145,0.145,0],[0.5,0,0],[0.855,0.145,0],[1,0.5,0],[0.855,0.855,0],[0.5,1,0],[0.145,0.855,0],[0,0.5,0]];shape=mxgraph.bpmn.event;html=1;verticalLabelPosition=bottom;labelBackgroundColor=#ffffff;verticalAlign=top;align=center;perimeter=ellipsePerimeter;outlineConnect=0;aspect=fixed;outline=end;symbol=terminate2;" vertex="1" parent="1">
          <mxGeometry x="1420" y="35" width="50" height="50" as="geometry" />
        </mxCell>
        <mxCell id="3HK6NQ19mwrpIGu4Z_Xl-22" style="edgeStyle=orthogonalEdgeStyle;rounded=0;orthogonalLoop=1;jettySize=auto;html=1;" edge="1" parent="1" source="3HK6NQ19mwrpIGu4Z_Xl-20" target="3HK6NQ19mwrpIGu4Z_Xl-8">
          <mxGeometry relative="1" as="geometry" />
        </mxCell>
        <mxCell id="3HK6NQ19mwrpIGu4Z_Xl-20" value="Check customer&#39;s credit rating" style="points=[[0.25,0,0],[0.5,0,0],[0.75,0,0],[1,0.25,0],[1,0.5,0],[1,0.75,0],[0.75,1,0],[0.5,1,0],[0.25,1,0],[0,0.75,0],[0,0.5,0],[0,0.25,0]];shape=mxgraph.bpmn.task;whiteSpace=wrap;rectStyle=rounded;size=10;html=1;container=1;expand=0;collapsible=0;taskMarker=abstract;" vertex="1" parent="1">
          <mxGeometry x="610" y="35" width="120" height="50" as="geometry" />
        </mxCell>
        <mxCell id="3HK6NQ19mwrpIGu4Z_Xl-21" style="edgeStyle=orthogonalEdgeStyle;rounded=0;orthogonalLoop=1;jettySize=auto;html=1;entryX=0;entryY=0.5;entryDx=0;entryDy=0;entryPerimeter=0;" edge="1" parent="1" source="3HK6NQ19mwrpIGu4Z_Xl-4" target="3HK6NQ19mwrpIGu4Z_Xl-20">
          <mxGeometry relative="1" as="geometry" />
        </mxCell>
      </root>
    </mxGraphModel>
  </diagram>
</mxfile>
